<svg version="1.1" viewBox="0 0 980 290" xml:space="preserve" xmlns="http://www.w3.org/2000/svg"><g transform="translate(-394.35 -374.85)"><path d="m716.93 581.2-23.467-56v95.467h-50.667v-155.47l-14.667-36.533h63.467l37.333 80.267 37.333-80.267h49.067v192h-50.667v-94.933l-23.467 55.467zm154.13 42.133q-10.667 0-20-5.3333-9.3334-5.6-15.2-16-5.8667-10.4-5.8667-25.067 0-22.933 16-34.667 16.267-11.733 41.867-11.733h11.467v-14.667q0-7.7333-5.3333-10.4-5.3333-2.9333-13.6-2.9333-10.133 0-19.467 1.8667-9.3333 1.8667-18.667 5.3333v-37.333q12-2.6667 24.8-4.8 13.067-2.4 26.133-2.4 14.667 0 26.933 3.7333 12.267 3.4667 19.733 12.8 7.4667 9.3333 7.4667 26.667v112.27h-41.6l-3.2-11.467q-6.6667 7.2-14.933 10.667-8.2667 3.4667-16.533 3.4667zm18.667-35.2q5.3333 0 9.6-4.8v-26.4h-3.4667q-8 0-13.6 4-5.6 3.7333-5.6 11.467 0 7.4667 4 11.733 4 4 9.0667 4zm77.6 72.533v-193.33h40.8l4 12.267q6.1334-6.9333 14.667-10.667 8.8-3.7333 18.933-3.7333 14.667 0 24 6.4 9.6 6.1333 14.933 17.067 5.6 10.933 7.7333 24.8 2.4 13.6 2.4 28.8 0 43.733-13.6 62.4t-39.733 18.667q-11.733 0-26.133-4.8v35.2zm58.933-74.667q12.267 0 15.467-11.2 3.4666-11.2 3.4666-33.867 0-21.067-3.2-29.6-3.2-8.8-12-8.8-2.6667 0-6.4 1.0667t-8.2667 3.4667v77.333q6.1334 1.6 10.933 1.6zm132.53 34.667h-48v-194.93l48-6.4zm86.4 2.6667q-15.733 0-28.8-3.4667-12.8-3.4667-22.133-12.267-9.3333-8.8-14.4-24.267-5.0667-15.467-5.0667-39.467 0-38.933 14.4-58.667 14.667-20 46.933-20 29.333 0 42.4 16.267 13.333 16 13.333 47.733 0 7.4667-0.5333 15.467-0.5333 7.7333-1.8667 14.133h-63.733q1.6 16.267 9.0667 21.867 7.4667 5.3333 25.067 5.3333 6.1333 0 12.533-1.0667 6.6667-1.0667 12.8-2.4v36.267q-9.3334 1.8667-19.733 3.2-10.133 1.3333-20.267 1.3333zm-7.2-122.93q-10.667 0-12.533 28.8h21.867q0-5.8667-0.5333-12.533-0.2667-6.6667-2.4-11.467-1.8667-4.8-6.4-4.8z" fill="#eb5600" aria-label="Maple"/><path
        d="m635.91 379.04s-12.853 26.934-17.699 28.622c-3.601 1.2541-8.7996-7.3104-8.7996-7.3104s-15.682 34.474-18.841 35.503c-4.4 1.4338-10.951-8.5344-10.951-8.5344 4.3287 25.084 10.882 67.338 4.2443 70.849-9.2461-2.4777-43.272-18.77-63.377-33.312 0 0 0.17587 9.9576-3.2076 13.578-3.9049 0.047-40.441-12.059-40.441-12.059s20.42 33.996 19.613 36.845c-2.306 3.1189-17.159 5.6517-17.159 5.6517s30.445 27.834 30.021 29.403c-0.81322 3.013-7.7151 2.1072-7.7151 2.1072s34.155 25.939 34.897 31.285c1.699 12.238-35.037 25.149-35.037 25.149s44.079 15.608 45.12 17.456c1.1198 1.9878-5.6019 6.3854-5.6019 6.3854h94.911v-155.46l-14.97-40.738 47.699 0.22097c-6.4109-8.621-6.8341-17.373-10.251-26.059 0 0-5.233 10.509-7.8804 8.806-4.4586-2.8673-14.575-28.39-14.575-28.39z"
        fill="#eb6005" stroke-width=".74673"/></g></svg>