<?xml version="1.0" encoding="UTF-8" standalone="no"?>
<!-- Created with Inkscape (http://www.inkscape.org/) -->

<svg
        width="815.02814"
        height="281.62598"
        viewBox="0 0 815.02813 281.62597"
        version="1.1"
        id="svg1"
        xml:space="preserve"
        xmlns="http://www.w3.org/2000/svg"
><defs
     id="defs1" /><g
     id="layer1"
     transform="translate(-476.83897,-379.04083)"><path
       d="m 716.93294,581.20003 -23.4667,-56.00007 v 95.46679 H 642.79951 V 465.19989 l -14.66668,-36.53338 h 63.46674 l 37.33338,80.26677 37.33338,-80.26677 h 49.06673 V 620.66675 H 764.66633 V 525.7333 l -23.4667,55.46673 z m 154.13333,42.13339 q -10.66668,0 -20.00002,-5.33334 -9.33335,-5.60001 -15.20002,-16.00002 -5.86668,-10.40001 -5.86668,-25.0667 0,-22.93336 16.00002,-34.66671 16.26669,-11.73335 41.86672,-11.73335 h 11.46668 v -14.66668 q 0,-7.73334 -5.33334,-10.40001 -5.33334,-2.93334 -13.60001,-2.93334 -10.13335,0 -19.4667,1.86667 -9.33334,1.86667 -18.66668,5.33334 V 472.3999 q 12.00001,-2.66667 24.80003,-4.80001 13.06668,-2.4 26.13336,-2.4 14.66669,0 26.93337,3.73334 12.26668,3.46667 19.73335,12.80002 7.46668,9.33334 7.46668,26.66669 v 112.26681 h -41.60005 l -3.2,-11.46668 q -6.66668,7.20001 -14.93336,10.66668 -8.26667,3.46667 -16.53335,3.46667 z m 18.66669,-35.20005 q 5.33334,0 9.60001,-4.8 v -26.40003 h -3.46667 q -8.00001,0 -13.60002,4 -5.6,3.73334 -5.6,11.46668 0,7.46668 4,11.73335 4.00001,4 9.06668,4 z m 77.60032,72.53343 V 467.33323 h 40.80002 l 4,12.26668 q 6.1334,-6.93334 14.6667,-10.66668 8.8,-3.73334 18.9334,-3.73334 14.6667,0 24,6.40001 9.6,6.13334 14.9334,17.06669 5.6,10.93334 7.7333,24.80003 2.4,13.60001 2.4,28.80003 0,43.73339 -13.6,62.40008 -13.6,18.66669 -39.7334,18.66669 -11.7333,0 -26.1334,-4.80001 v 35.20005 z m 58.93342,-74.66676 q 12.2667,0 15.4667,-11.20001 3.4666,-11.20002 3.4666,-33.86671 0,-21.0667 -3.2,-29.60004 -3.2,-8.80001 -12,-8.80001 -2.6667,0 -6.4,1.06667 -3.7333,1.06667 -8.2667,3.46667 v 77.33343 q 6.1334,1.6 10.9334,1.6 z m 132.5335,34.66671 h -48 V 425.73318 l 48,-6.40001 z m 86.4002,2.66667 q -15.7333,0 -28.8,-3.46667 -12.8,-3.46667 -22.1334,-12.26668 -9.3333,-8.80002 -14.4,-24.2667 -5.0667,-15.46669 -5.0667,-39.46672 0,-38.93338 14.4,-58.66673 14.6667,-20.00003 46.9334,-20.00003 29.3334,0 42.4001,16.26669 13.3333,16.00002 13.3333,47.73339 0,7.46668 -0.5333,15.46669 -0.5333,7.73334 -1.8667,14.13335 h -63.7334 q 1.6,16.26668 9.0667,21.86669 7.4667,5.33334 25.0667,5.33334 6.1333,0 12.5333,-1.06667 6.6667,-1.06667 12.8001,-2.4 v 36.26671 q -9.3334,1.86667 -19.7334,3.2 -10.1333,1.33334 -20.2667,1.33334 z m -7.2,-122.93349 q -10.6667,0 -12.5334,28.80004 h 21.8667 q 0,-5.86667 -0.5333,-12.53335 -0.2667,-6.66667 -2.4,-11.46668 -1.8667,-4.80001 -6.4,-4.80001 z"
       id="text1"
       style="font-size:266.667px;font-family:'Protest Strike';-inkscape-font-specification:'Protest Strike';fill:#eb5600"
       aria-label="Maple" /><path
       id="path1"
       style="fill:#eb6005;fill-opacity:1;stroke-width:0.746727"
       d="m 635.91102,379.04083 c 0,0 -12.85287,26.93381 -17.69881,28.62152 -3.60103,1.25414 -8.79957,-7.31038 -8.79957,-7.31038 0,0 -15.682,34.47385 -18.84113,35.5033 -4.39996,1.43378 -10.95061,-8.53443 -10.95061,-8.53443 4.32867,25.08446 10.88162,67.33825 4.24428,70.8491 -9.2461,-2.47772 -43.27243,-18.77041 -63.37724,-33.31238 0,0 0.17587,9.95755 -3.20763,13.57813 -3.90493,0.047 -40.44134,-12.05903 -40.44134,-12.05903 0,0 20.41976,33.99649 19.61263,36.84496 -2.30597,3.11886 -17.15855,5.65174 -17.15855,5.65174 0,0 30.44461,27.83352 30.021,29.403 -0.81322,3.01297 -7.71508,2.10719 -7.71508,2.10719 0,0 34.15505,25.93879 34.89726,31.28492 1.69904,12.23794 -35.03681,25.14874 -35.03681,25.14874 0,0 44.07917,15.60759 45.12022,17.45561 1.11982,1.98783 -5.6019,6.38537 -5.6019,6.38537 H 635.8891 V 465.2 l -14.96964,-40.7376 47.69867,0.22097 c -6.41086,-8.62105 -6.83412,-17.3727 -10.25118,-26.05905 0,0 -5.23305,10.50857 -7.88045,8.80602 -4.45861,-2.86733 -14.57548,-28.38951 -14.57548,-28.38951 z" /></g></svg>
