<svg width="815" height="281.6" xml:space="preserve" xmlns="http://www.w3.org/2000/svg">
  <path d="m717 581-24-56v96h-50V465l-15-36h64l37 80 37-80h49v192h-50v-95l-24 55zm154 42q-11 0-20-5-9-6-15-16t-6-25q0-23 16-35 16-11 42-11h11v-15q0-8-5-11-5-2-14-2l-19 1-19 6v-38l25-4q13-3 26-3 15 0 27 4 12 3 20 13 7 9 7 26v113h-41l-3-12q-7 7-15 11-9 3-17 3zm19-35q5 0 9-5v-26h-3q-8 0-14 4-5 4-5 11 0 8 4 12t9 4zm77 73V467h41l4 13q6-7 15-11t19-4q14 0 24 7 9 6 15 17 5 11 7 24 3 14 3 29 0 44-14 63-13 18-40 18-11 0-26-4v35zm59-75q13 0 16-11t3-34q0-21-3-30-3-8-12-8l-6 1-9 3v77l11 2zm133 35h-48V426l48-7zm86 2q-16 0-29-3-12-4-22-12-9-9-14-25-5-15-5-39 0-39 14-59 15-20 47-20 29 0 43 16 13 16 13 48l-1 16-2 14h-63q1 16 9 22 7 5 25 5l12-1 13-2v36l-20 3-20 1zm-7-123q-11 0-13 29h22v-12q0-7-3-12-1-5-6-5z" style="font-size:266.667px;font-family:'Protest Strike';-inkscape-font-specification:'Protest Strike';fill:#eb5600" aria-label="Maple" transform="translate(-477 -379)"/>
    <path style="fill:#eb6005;fill-opacity:1;stroke-width:0.746727" d="M636 379s-13 27-18 29c-3 1-9-8-9-8s-15 35-18 36c-5 1-11-9-11-9 4 25 11 68 4 71-9-2-43-19-64-33 0 0 1 10-3 13-4 0-40-12-40-12s20 34 19 37c-2 3-17 6-17 6s31 28 30 29c0 3-7 2-7 2s34 26 34 32c2 12-35 25-35 25s45 15 46 17-6 7-6 7h95V465l-15-41 48 1c-7-9-7-18-11-26 0 0-5 10-8 8-4-2-14-28-14-28z" transform="translate(-477 -379)"/>
</svg>
